<svg width="512" height="512" viewBox="0 0 512 512" fill="none" xmlns="http://www.w3.org/2000/svg">
<rect width="65.441" height="20.1122" rx="10.0561" transform="matrix(0.412585 0.910919 -0.805401 0.59273 384.861 433.276)" fill="#3F4C5F" fill-opacity="0.53"/>
<rect width="65.441" height="20.1122" rx="10.0561" transform="matrix(-0.412585 0.910919 -0.805401 -0.59273 144.199 445.197)" fill="#3F4C5F" fill-opacity="0.53"/>
<path d="M19 281.494H492V300.98C492 398.633 437.155 477.796 369.5 477.796H141.5C73.8451 477.796 19 398.633 19 300.98V281.494Z" fill="#5A6D98"/>
<rect y="256" width="512" height="42.0648" rx="21.0324" fill="#3F4C5F" fill-opacity="0.53"/>
<circle cx="84" cy="193" r="27" fill="#3F4C5F" fill-opacity="0.53"/>
<circle cx="168" cy="94" r="34" fill="#3F4C5F" fill-opacity="0.53"/>
<circle cx="198" cy="193" r="20" fill="#3F4C5F" fill-opacity="0.53"/>
<path d="M60.4415 193.674C60.3611 180.45 68.7888 173.574 73.0127 171.789C76.8702 169.527 80.909 174.269 75.3738 177.144C69.1744 180.364 66.351 189.605 66.462 193.774C66.5744 197.942 60.4741 199.184 60.4415 193.674Z" fill="white"/>
<path d="M180.122 194.648C180.059 184.355 186.619 179.003 189.907 177.614C192.909 175.853 196.053 179.544 191.745 181.782C186.919 184.288 184.722 191.481 184.808 194.726C184.896 197.97 180.147 198.937 180.122 194.648Z" fill="white"/>
<path d="M137.955 96.7494C137.846 78.8154 149.275 69.4901 155.004 67.0692C160.235 64.0022 165.712 70.4326 158.206 74.3314C149.798 78.698 145.969 91.2314 146.12 96.8846C146.272 102.538 137.999 104.222 137.955 96.7494Z" fill="white"/>
<path d="M423.497 265.5C427.874 265.5 431.422 261.973 431.422 257.596C431.422 233.768 431.422 163.987 431.422 135.296C431.422 127.154 430.231 118.822 425.271 112.366C424.029 110.75 422.681 109.213 421.234 107.766C416.87 103.402 411.688 99.9396 405.986 97.5777C400.284 95.2157 394.172 94 388 94C381.828 94 375.716 95.2157 370.014 97.5777C364.312 99.9396 359.13 103.402 354.766 107.766C350.402 112.13 346.94 117.312 344.578 123.014C343.313 126.066 342.377 129.236 341.781 132.469C340.921 137.128 344.841 141 349.578 141V141C354.316 141 358.038 137.083 359.381 132.539C359.677 131.537 360.027 130.549 360.428 129.579C361.928 125.959 364.126 122.669 366.897 119.897C369.669 117.126 372.959 114.928 376.579 113.428C380.2 111.928 384.081 111.156 388 111.156C391.919 111.156 395.8 111.928 399.421 113.428C403.041 114.928 406.331 117.126 409.103 119.897C411.874 122.669 414.072 125.959 415.572 129.579C416.868 132.708 415.924 228.998 415.644 257.635C415.601 262.012 419.12 265.5 423.497 265.5V265.5Z" fill="#3F4C5F" fill-opacity="0.53"/>
<rect x="332" y="132" width="35" height="16" rx="8" fill="#5A6D98"/>
</svg>
