<svg width="640" height="512" viewBox="0 0 640 512" fill="none" xmlns="http://www.w3.org/2000/svg">
<g clip-path="url(#clip0_585_169)">
<path d="M144 333.878C144 432.376 222.75 512 320 512C372.811 512 420.039 488.403 452.291 451.169L174.773 233.659C156.59 263.935 144 294.646 144 333.878ZM349.25 22.1321C341.25 -6.7419 299.75 -7.9919 290.75 22.1321C274.314 77.5911 251.314 118.695 228.383 153.691L493.754 361.682C495.184 352.622 496 343.352 496 333.878C496 222.129 396.25 180.63 349.25 22.1321Z" fill="#3F4C5F" fill-opacity="0.53"/>
<path d="M630.811 469.103L38.8139 5.10998C34.4069 1.67198 29.1889 0.000976562 24.0319 0.000976562C16.9069 0.000976562 9.84494 3.15698 5.12594 9.18798C-3.06106 19.625 -1.24906 34.719 9.18894 42.891L601.186 506.883C611.686 515.086 626.749 513.211 634.874 502.805C643.061 492.368 641.249 477.275 630.811 469.103Z" fill="#5A6D98"/>
</g>
<defs>
<clipPath id="clip0_585_169">
<rect width="640" height="512" fill="white"/>
</clipPath>
</defs>
</svg>
