<svg width="21" height="16" viewBox="0 0 21 16" fill="none" xmlns="http://www.w3.org/2000/svg">
<path d="M20.1387 7.28023C18.2304 2.93798 14.4547 0 10.1303 0C5.80602 0 2.02916 2.93991 0.122021 7.28023C0.054943 7.43602 0 7.70472 0 7.87915C0 8.05422 0.054943 8.32222 0.122021 8.478C2.03025 12.8203 5.80602 15.7583 10.1303 15.7583C14.4547 15.7583 18.2315 12.8183 20.1387 8.478C20.2057 8.32222 20.2607 8.05352 20.2607 7.87915C20.2607 7.70409 20.2057 7.43602 20.1387 7.28023ZM10.1303 14.0699C6.63119 14.0699 3.40619 11.6957 1.7033 7.87929C3.41231 4.05794 6.63435 1.68839 10.1303 1.68839C13.6295 1.68839 16.8545 4.06262 18.5574 7.87894C16.8484 11.7004 13.6263 14.0699 10.1303 14.0699ZM10.1303 3.37678C7.64468 3.37678 5.62797 5.39398 5.62797 7.87915C5.62797 10.3643 7.64468 12.3815 10.1303 12.3815H10.1323C12.617 12.3815 14.6327 10.3653 14.6327 7.88109V7.87915C14.6327 5.39398 12.6161 3.37678 10.1303 3.37678ZM10.1303 10.6931C8.57875 10.6931 7.31636 9.43075 7.31636 7.87915C7.31636 7.85284 7.32336 7.82847 7.32413 7.80233C7.50197 7.84838 7.6864 7.87915 7.87915 7.87915C9.12244 7.87915 10.1303 6.87126 10.1303 5.62797C10.1303 5.43521 10.0996 5.25079 10.0535 5.07294C10.0797 5.07217 10.104 5.06517 10.1303 5.06517C11.6819 5.06517 12.9443 6.32756 12.9443 7.88109C12.9443 9.43166 11.6829 10.6931 10.1303 10.6931Z" fill="#BFBFBF"/>
</svg>
