<svg width="512" height="512" viewBox="0 0 512 512" fill="none" xmlns="http://www.w3.org/2000/svg">
<g clip-path="url(#clip0_584_14)">
<path d="M192 448C192 483.375 220.625 512 256 512C291.375 512 320 483.375 320 448H192ZM287.959 162.203V0H223.959V162.203C234.5 160.902 245.141 160 255.959 160C266.777 160 277.418 160.902 287.959 162.203Z" fill="#3F4C5F" fill-opacity="0.53"/>
<path d="M512 380.797V384C512 403.199 499.133 416 479.83 416H32.17C12.867 416 0 403.199 0 384V380.797C16.01 253.398 128 160 256 160C384 160 495.99 253.398 512 380.797Z" fill="#5A6D98"/>
</g>
<defs>
<clipPath id="clip0_584_14">
<rect width="512" height="512" fill="white"/>
</clipPath>
</defs>
</svg>
