<svg width="640" height="512" viewBox="0 0 640 512" fill="none" xmlns="http://www.w3.org/2000/svg">
<g clip-path="url(#clip0_585_165)">
<path d="M194.599 467.393C188.693 481.125 193.099 497.109 205.193 505.891C210.818 509.984 217.41 512 224.003 512C231.535 512 239.066 509.344 245.066 504.078L374.869 390.5L264.593 304.068L194.599 467.393ZM154.826 218.035L138.945 231.932C128.915 240.713 125.353 254.789 130.04 267.258C134.728 279.742 146.663 288.008 160.007 288.008H244.103L154.826 218.035ZM509.958 244.76C505.273 232.275 493.335 224.01 479.992 224.01H368.523L445.4 44.6249C451.306 30.8909 446.9 14.9079 434.806 6.12689C422.745 -2.65411 406.183 -1.95111 394.933 7.93889L228.372 153.682L448.415 326.145L501.054 280.086C511.083 271.305 514.646 257.227 509.958 244.76Z" fill="#3F4C5F" fill-opacity="0.53"/>
<path d="M634.872 502.805C626.747 513.211 611.685 515.086 601.185 506.883L9.18894 42.889C-1.24906 34.717 -3.06106 19.625 5.12594 9.188C9.84494 3.156 16.9069 0 24.0319 0C29.1889 0 34.4069 1.672 38.8139 5.109L630.81 469.102C641.247 477.273 643.06 492.367 634.872 502.805Z" fill="#5A6D98"/>
</g>
<defs>
<clipPath id="clip0_585_165">
<rect width="640" height="512" fill="white"/>
</clipPath>
</defs>
</svg>
