<svg width="512" height="512" viewBox="0 0 512 512" fill="none" xmlns="http://www.w3.org/2000/svg">
<g clip-path="url(#clip0_615_3)">
<path d="M486.4 256C500.538 256 512.133 244.51 510.721 230.442C506.547 188.84 492.229 148.754 468.856 113.774C440.727 71.675 400.745 38.8629 353.967 19.4868C307.189 0.110805 255.716 -4.95885 206.057 4.91897C156.398 14.7968 110.783 39.1784 74.9807 74.9807C39.1784 110.783 14.7968 156.398 4.91897 206.057C-4.95885 255.716 0.110806 307.189 19.4868 353.967C38.8629 400.745 71.675 440.727 113.774 468.856C148.754 492.229 188.84 506.547 230.442 510.721C244.51 512.133 256 500.538 256 486.4V486.4C256 472.262 244.494 460.965 230.466 459.202C199.008 455.249 168.775 444.029 142.219 426.285C108.54 403.781 82.2903 371.796 66.7895 334.374C51.2886 296.951 47.2329 255.773 55.1352 216.046C63.0374 176.318 82.5427 139.826 111.185 111.185C139.826 82.5427 176.318 63.0374 216.046 55.1352C255.773 47.2329 296.951 51.2886 334.374 66.7895C371.796 82.2903 403.781 108.54 426.285 142.219C444.029 168.775 455.249 199.008 459.202 230.466C460.965 244.494 472.262 256 486.4 256V256Z" fill="black"/>
</g>
<defs>
<clipPath id="clip0_615_3">
<rect width="512" height="512" fill="white"/>
</clipPath>
</defs>
</svg>
