<svg width="640" height="512" viewBox="0 0 640 512" fill="none" xmlns="http://www.w3.org/2000/svg">
<g clip-path="url(#clip0_606_27)">
<path d="M630.812 469.102L542.029 399.516C583.905 362.787 607.999 310.936 607.999 256.002C607.999 198.879 582.155 144.91 537.124 108.004C526.905 99.66 511.78 101.098 503.343 111.348C494.937 121.598 496.437 136.723 506.687 145.129C540.562 172.91 559.999 213.316 559.999 256.002C559.999 298.689 540.562 339.096 506.687 366.877C505.642 367.734 505.089 368.904 504.228 369.889L459.902 335.146C460.405 335.178 460.868 335.471 461.374 335.471C466.718 335.471 472.124 333.689 476.562 330.064C499.093 311.627 511.999 284.658 511.999 256.002C511.999 227.348 499.093 200.379 476.562 181.941C466.28 173.598 451.155 175.066 442.812 185.348C434.405 195.598 435.905 210.723 446.187 219.129C457.499 228.379 463.999 241.814 463.999 256.002C463.999 270.19 457.499 283.627 446.187 292.877C438.468 299.188 435.704 309.283 438.361 318.264L383.999 275.656V64.006C383.999 51.412 376.609 39.975 365.109 34.818C353.609 29.631 340.155 31.725 330.734 40.1L214.864 143.094L38.8139 5.109C34.4069 1.672 29.1889 0 24.0319 0C16.9069 0 9.84494 3.156 5.12594 9.188C-3.06106 19.625 -1.24906 34.717 9.18894 42.889L601.187 506.883C611.687 515.086 626.749 513.211 634.874 502.805C643.062 492.367 641.249 477.273 630.812 469.102ZM63.9989 208.004V304.002C63.9989 330.51 85.4889 352.002 111.999 352.002H195.839L330.734 471.906C336.718 477.219 344.312 480 351.999 480C356.437 480 360.905 479.094 365.109 477.188C376.609 472.031 383.999 460.594 383.999 448V397.656L88.7549 166.252C74.0559 174.457 63.9989 189.977 63.9989 208.004Z" fill="white"/>
</g>
<defs>
<clipPath id="clip0_606_27">
<rect width="640" height="512" fill="white"/>
</clipPath>
</defs>
</svg>
