<svg width="512" height="512" viewBox="0 0 512 512" fill="none" xmlns="http://www.w3.org/2000/svg">
<g clip-path="url(#clip0_606_35)">
<path d="M461.219 288.01H223.99V50.7809C223.99 41.1569 215.616 33.4069 206.117 34.6569C87.1267 51.5309 -3.99032 155.397 0.134685 280.136C4.25868 404.125 107.875 507.741 231.864 511.865C356.603 515.99 460.469 424.873 477.343 305.883C478.593 296.384 470.843 288.01 461.219 288.01ZM288.734 0.0348656C279.61 -0.590134 271.986 7.15987 271.986 16.2839V240.014H495.716C504.84 240.014 512.59 232.265 511.965 223.266C503.715 103.776 408.224 8.28487 288.734 0.0348656Z" fill="white"/>
</g>
<defs>
<clipPath id="clip0_606_35">
<rect width="512" height="512" fill="white"/>
</clipPath>
</defs>
</svg>
