<svg width="512" height="512" viewBox="0 0 512 512" fill="none" xmlns="http://www.w3.org/2000/svg">
<g clip-path="url(#clip0_585_20)">
<path d="M236.909 103.09C247.422 150.253 230.184 194.228 198.406 201.311C166.629 208.394 132.347 175.903 121.834 128.74C111.321 81.5773 128.56 37.6022 160.337 30.5191C192.114 23.436 226.397 55.927 236.909 103.09Z" fill="#5A6D98"/>
<path d="M386.069 125.038C394.657 77.4868 375.646 34.2486 343.607 28.4627C311.568 22.6767 278.634 56.5341 270.047 104.085C261.46 151.636 280.471 194.875 312.509 200.661C344.548 206.446 377.482 172.589 386.069 125.038Z" fill="#5A6D98"/>
<path d="M387.03 484.315C348.003 491.32 316.544 457.296 262.508 457.296C205.466 457.296 164.43 506.332 128.407 484.315C60.3622 442.725 172.448 265.161 262.508 265.161C354.577 265.161 473.091 467.304 387.03 484.315Z" fill="#5A6D98"/>
<path d="M478.529 263.13C493.616 220.864 482.119 178.131 452.85 167.683C423.581 157.236 387.624 183.031 372.537 225.297C357.45 267.564 368.947 310.297 398.216 320.744C427.485 331.191 463.443 305.397 478.529 263.13Z" fill="#5A6D98"/>
<path d="M137.757 230.79C155.414 272.049 146.566 315.407 117.994 327.634C89.4232 339.861 51.9481 316.326 34.2915 275.067C16.6349 233.808 25.483 190.449 54.0543 178.222C82.6256 165.995 120.101 189.531 137.757 230.79Z" fill="#5A6D98"/>
</g>
<defs>
<clipPath id="clip0_585_20">
<rect width="512" height="512" fill="white"/>
</clipPath>
</defs>
</svg>
