<svg width="512" height="512" viewBox="0 0 512 512" fill="none" xmlns="http://www.w3.org/2000/svg">
<path d="M152.529 118.589C126.278 118.589 104.998 140.225 104.998 166.911C104.998 193.596 126.278 215.232 152.529 215.232C178.781 215.232 200.061 193.596 200.061 166.911C200.061 140.225 178.78 118.589 152.529 118.589ZM445.625 30H65.375C30.3742 30 2 58.8439 2 94.4286V416.571C2 452.154 30.3742 481 65.375 481H445.625C480.628 481 509 452.154 509 416.571V94.4286C509 58.8439 480.628 30 445.625 30ZM461.469 378.951C461.469 388.649 449.052 392.67 443.367 384.814L326.033 222.661C322.676 218.019 317.022 215.232 310.967 215.232C304.913 215.232 299.259 218.019 295.903 222.661L198.053 357.887C194.167 363.259 186.225 363.43 182.11 358.231L153.579 322.18C150.172 317.872 144.733 315.326 138.95 315.326C133.165 315.326 127.727 317.872 124.319 322.18L49.6029 416.588C49.5852 416.61 49.5312 416.6 49.5312 416.571V416.571V94.4286C49.5312 85.5475 56.6392 78.3214 65.375 78.3214H445.625C454.361 78.3214 461.469 85.5475 461.469 94.4286V378.951Z" fill="black" fill-opacity="0.6"/>
</svg>
