<svg width="576" height="512" viewBox="0 0 576 512" fill="none" xmlns="http://www.w3.org/2000/svg">
<g clip-path="url(#clip0_585_157)">
<path d="M561.406 368.4C532.98 365.408 506.643 352.877 490.871 333.689C484.42 325.838 472.787 327.174 466.123 334.846C427.029 379.842 334.92 378.697 299.02 333.689C296.023 329.932 291.486 328.037 286.986 327.998C282.486 328.037 277.977 329.932 274.98 333.689C268.979 341.213 261.023 347.047 252.391 352.109C250.549 353.191 248.613 354.156 246.693 355.139C203.482 376.754 139.039 370.713 107.877 334.846C101.213 327.174 89.58 325.838 83.129 333.689C67.357 352.877 41.02 365.408 12.594 368.4C4.688 369.205 -1 376.162 -1 384.018V416.049C-0.998 425.1 6.637 432.729 15.715 431.943C44.52 429.455 71.824 420.611 95.129 406.189C151.615 440.58 231.99 440.104 286.986 406.268C341.982 440.104 422.385 440.58 478.871 406.189C502.176 420.611 529.48 429.455 558.285 431.943C567.363 432.729 574.998 425.1 575 416.049V384.018C575 376.162 569.312 369.205 561.406 368.4ZM95 96C59.654 96 31 124.652 31 160C31 195.346 59.654 224 95 224C130.346 224 159 195.346 159 160C159 124.652 130.346 96 95 96Z" fill="#3F4C5F" fill-opacity="0.53"/>
<path d="M470.154 110.703L431.561 101.859C382.061 90.5311 329.686 95.7971 283.998 116.734C250.373 132.141 221.498 155.531 200.779 184.047L178.967 213.25C157.986 241.307 146.389 273.787 144 307.668C156.479 315.416 173.346 320.023 191.381 320.023C216.549 320.023 238.996 311.484 249.959 297.74C258.848 286.592 272.242 280.125 286.707 280L286.984 279.996L287.262 280C301.744 280.125 315.148 286.592 324.035 297.734C335 311.484 357.447 320.023 382.615 320.023C407.344 320.023 430.086 311.531 441.963 297.861C442.83 296.863 443.893 296.115 444.824 295.193L304.467 178.229C306.553 177.158 308.508 175.904 310.654 174.922C343.623 159.812 381.498 156.094 417.248 164.234L455.842 173.078C473.029 177.062 490.217 166.266 494.186 149.031C498.123 131.812 487.373 114.641 470.154 110.703Z" fill="#5A6D98"/>
</g>
<defs>
<clipPath id="clip0_585_157">
<rect width="576" height="512" fill="white"/>
</clipPath>
</defs>
</svg>
