<svg width="512" height="512" viewBox="0 0 512 512" fill="none" xmlns="http://www.w3.org/2000/svg">
<g clip-path="url(#clip0_585_2)">
<path d="M14.0215 477.609L22.6264 474.479H503.721L512.326 477.609V504.988C284.686 517.504 105.025 510.725 14.0215 504.206V477.609Z" fill="#3F4C5F" fill-opacity="0.53"/>
<path d="M262.001 0.425241C95.3811 10.5943 74.254 149.838 151.702 206.161L164.215 195.21C84.7374 101.963 194.723 29.0314 262.001 33.2805C410.633 42.6677 408.512 161.572 361.35 195.21L374.649 206.944C488.078 103.685 362.911 -5.73344 262.001 0.425241Z" fill="#3F4C5F" fill-opacity="0.53"/>
<path d="M166.564 192.863L170.476 198.339L154.048 212.419L148.572 206.944L166.564 192.863Z" fill="#3F4C5F" fill-opacity="0.53"/>
<path d="M377.18 208.111L372.551 213.051L355.386 199.699L359.703 193.22L377.18 208.111Z" fill="#3F4C5F" fill-opacity="0.53"/>
<path d="M260.534 101.418C206.052 104.703 197.847 151.403 225.227 170.96L235.398 167.048C206.456 134.975 244.003 115.127 261.213 116.201C299.544 118.593 307.367 149.056 287.81 166.266L298.762 169.395C335.851 136.033 293.019 99.4586 260.534 101.418Z" fill="#3F4C5F" fill-opacity="0.53"/>
<path d="M236.585 161.835L238.2 167.705L219.729 174.35L216.777 167.982L236.585 161.835Z" fill="#3F4C5F" fill-opacity="0.53"/>
<path d="M305.379 166.7L303.353 171.804L286.34 167.015L287.669 160.853L305.379 166.7Z" fill="#3F4C5F" fill-opacity="0.53"/>
<path d="M54.6973 188.951L130.577 236.67C127.97 248.665 116.34 276.096 93.8106 286.735L-0.84375 212.42C10.108 202.25 40.3035 186.448 54.6973 188.951Z" fill="#5A6D98"/>
<path d="M503.718 474.48C455.999 238.235 329.272 163.137 263.561 163.137C115.713 171.742 39.5722 376.957 22.623 474.48C211.932 488.561 420.015 478.913 503.718 474.48Z" fill="#5A6D98"/>
</g>
<defs>
<clipPath id="clip0_585_2">
<rect width="512" height="512" fill="white"/>
</clipPath>
</defs>
</svg>
