<svg width="320" height="512" viewBox="0 0 320 512" fill="none" xmlns="http://www.w3.org/2000/svg">
<path d="M208.001 384C208.001 410.5 186.501 432 160.001 432C133.501 432 112.001 410.5 112.001 384C112.001 363.125 125.376 345.375 144.001 338.75V144C144.001 135.125 151.126 128 160.001 128C168.876 128 176.001 135.125 176.001 144V338.75C194.626 345.375 208.001 363.125 208.001 384ZM256 299.375C275.875 321.875 288 351.5 288 384C288 454.75 230.75 512 160.001 512C159.751 512 159.376 512 159.126 512C88.7508 511.5 31.6268 453.625 32.0018 383.375C32.1268 351.125 44.2518 321.75 64.0018 299.375V96C64.0018 43 107.001 0 160.001 0C213.001 0 256 43 256 96V299.375ZM256 384C256 344.125 233.125 321.875 224 311.5V96C224 60.75 195.251 32 160.001 32C124.751 32 96.0008 60.75 96.0008 96V311.5C86.5008 322.125 64.2518 344 64.0018 383.5C63.7518 436.25 106.626 479.625 159.376 480H160.001C212.876 480 256 436.875 256 384Z" fill="black"/>
</svg>
