<svg width="512" height="512" viewBox="0 0 512 512" fill="none" xmlns="http://www.w3.org/2000/svg">
<path d="M66.3134 273.406C53.4564 270 40.3174 277.5 36.8444 290.281C33.3714 303.062 40.9264 316.25 53.7374 319.719L74.0714 325.227L132.26 291.275L66.3134 273.406ZM117.208 81.3749C104.383 84.7499 96.7354 97.9059 100.127 110.719L105.506 131.012L164.325 165.328L146.583 98.4059C143.204 85.6249 130.112 77.9059 117.208 81.3749ZM60.0084 239.438C62.0884 239.438 64.2024 239.156 66.3134 238.594L132.26 220.725L74.0714 186.773L53.7374 192.281C40.9264 195.75 33.3724 208.938 36.8444 221.719C39.7394 232.406 49.4364 239.438 60.0084 239.438ZM100.127 401.281C96.7354 414.094 104.383 427.25 117.208 430.625C119.272 431.188 121.336 431.438 123.372 431.438C134.006 431.438 143.735 424.344 146.583 413.594L164.325 346.672L105.506 380.988L100.127 401.281ZM446.137 238.594C448.249 239.156 450.362 239.438 452.442 239.438C463.014 239.438 472.711 232.406 475.606 221.719C479.079 208.938 471.524 195.75 458.713 192.281L438.379 186.773L380.19 220.725L446.137 238.594ZM412.323 110.719C415.715 97.9059 408.067 84.7499 395.243 81.3749C382.432 77.9059 369.262 85.6249 365.868 98.4059L348.125 165.328L406.944 131.012L412.323 110.719ZM406.944 380.988L348.125 346.672L365.868 413.594C368.715 424.344 378.444 431.438 389.079 431.438C391.114 431.438 393.178 431.188 395.243 430.625C408.067 427.25 415.715 414.094 412.323 401.281L406.944 380.988ZM446.137 273.406L380.19 291.275L438.379 325.227L458.713 319.719C471.524 316.25 479.079 303.063 475.606 290.281C472.149 277.5 459.042 270 446.137 273.406ZM302.475 47.1249L288.258 61.4959V129.758L336.635 80.8749C345.973 71.4369 345.879 56.2499 336.448 46.9369C326.985 37.5939 311.782 37.7189 302.475 47.1249ZM288.258 382.242V450.504L302.475 464.875C307.168 469.625 313.362 472 319.555 472C325.655 472 331.756 469.688 336.448 465.062C345.879 455.75 345.973 440.562 336.635 431.125L288.258 382.242ZM176.002 46.9379C166.571 56.2499 166.477 71.4379 175.815 80.8749L224.192 129.758V61.4959L209.975 47.1249C200.653 37.7189 185.45 37.5939 176.002 46.9379ZM176.002 465.062C185.45 474.375 200.653 474.312 209.975 464.875L224.192 450.504V382.242L175.815 431.125C166.477 440.562 166.571 455.75 176.002 465.062Z" fill="#3F4C5F" fill-opacity="0.53"/>
<path d="M475.615 384.125C469.671 394.312 458.941 400 447.93 400C442.44 400 436.888 398.594 431.804 395.625L288.032 311.742V480C288.032 497.688 273.69 512 256 512C238.31 512 223.967 497.688 223.967 480V311.742L80.1947 395.625C75.1117 398.594 69.5587 400 64.0687 400C53.0577 400 42.3277 394.312 36.3847 384.125C27.4537 368.875 32.5997 349.281 47.8807 340.375L192.495 256L47.8807 171.625C32.5997 162.719 27.4537 143.125 36.3847 127.875C45.2687 112.594 64.8827 107.438 80.1947 116.375L223.967 200.258V32C223.967 14.312 238.31 0 256 0C273.69 0 288.032 14.312 288.032 32V200.258L431.804 116.375C447.085 107.469 466.715 112.625 475.615 127.875C484.546 143.125 479.4 162.719 464.118 171.625L319.504 256L464.118 340.375C479.4 349.281 484.546 368.875 475.615 384.125Z" fill="#5A6D98"/>
</svg>
