<svg width="24" height="24" viewBox="0 0 24 24" fill="none" xmlns="http://www.w3.org/2000/svg">
<path d="M7.5 15.5C7.5 16.0523 7.94772 16.5 8.5 16.5H15.5C16.0523 16.5 16.5 16.0523 16.5 15.5V8.5C16.5 7.94772 16.0523 7.5 15.5 7.5H8.5C7.94772 7.5 7.5 7.94772 7.5 8.5V15.5ZM21 8.25H23.25C23.6643 8.25 24 7.91419 24 7.5C24 7.08581 23.6643 6.75 23.25 6.75H21V6C21 4.34316 19.6569 3 18 3H17.25V0.75C17.25 0.335813 16.9143 0 16.5 0C16.0858 0 15.75 0.335813 15.75 0.75V3H12.75V0.75C12.75 0.335813 12.4143 0 12 0C11.5858 0 11.25 0.335813 11.25 0.75V3H8.25V0.75C8.25 0.335813 7.91428 0 7.5 0C7.08581 0 6.75 0.335813 6.75 0.75V3H6C4.34316 3 3 4.34316 3 6V6.75H0.75C0.335813 6.75 0 7.08581 0 7.5C0 7.91419 0.335813 8.25 0.75 8.25H3V11.25H0.75C0.335813 11.25 0 11.5858 0 12C0 12.4142 0.335813 12.75 0.75 12.75H3V15.75H0.75C0.335813 15.75 0 16.0858 0 16.5C0 16.9142 0.335813 17.25 0.75 17.25H3V18C3 19.6568 4.34316 21 6 21H6.75V23.25C6.75 23.6642 7.08581 24 7.5 24C7.91428 24 8.25 23.6642 8.25 23.25V21H11.25V23.25C11.25 23.6642 11.5858 24 12 24C12.4143 24 12.75 23.6642 12.75 23.25V21H15.75V23.25C15.75 23.6642 16.0858 24 16.5 24C16.9143 24 17.25 23.6642 17.25 23.25V21H18C19.6569 21 21 19.6568 21 18V17.25H23.25C23.6643 17.25 24 16.9142 24 16.5C24 16.0858 23.6643 15.75 23.25 15.75H21V12.75H23.25C23.6643 12.75 24 12.4142 24 12C24 11.5858 23.6643 11.25 23.25 11.25H21V8.25ZM18 17.25C18 17.6642 17.6643 18 17.25 18H6.75C6.33581 18 6 17.6642 6 17.25V6.75C6 6.33581 6.33581 6 6.75 6H17.25C17.6643 6 18 6.33581 18 6.75V17.25Z" fill="#64696B"/>
</svg>
