<svg width="22" height="20" viewBox="0 0 22 20" fill="none" xmlns="http://www.w3.org/2000/svg">
<path d="M19.9375 11H2.0625C0.923828 11 0 11.9238 0 13.0625V17.1875C0 18.3262 0.923828 19.25 2.0625 19.25H19.9375C21.0762 19.25 22 18.3262 22 17.1875V13.0625C22 11.9238 21.0762 11 19.9375 11ZM13.75 16.5C12.9927 16.5 12.375 15.8823 12.375 15.125C12.375 14.3677 12.9927 13.75 13.75 13.75C14.5073 13.75 15.125 14.3677 15.125 15.125C15.125 15.8823 14.5073 16.5 13.75 16.5ZM17.875 16.5C17.1177 16.5 16.5 15.8823 16.5 15.125C16.5 14.3677 17.1177 13.75 17.875 13.75C18.6323 13.75 19.25 14.3677 19.25 15.125C19.25 15.8823 18.6323 16.5 17.875 16.5ZM19.9375 0H2.0625C0.923828 0 0 0.923828 0 2.0625V10.3299C0.576383 9.89373 1.28571 9.625 2.0625 9.625H19.9375C20.7143 9.625 21.4236 9.89373 22 10.3299V2.0625C22 0.923828 21.0762 0 19.9375 0Z" fill="#64696B"/>
</svg>
