<svg width="512" height="512" viewBox="0 0 512 512" fill="none" xmlns="http://www.w3.org/2000/svg">
<path d="M448 32H64C28.654 32 0 60.654 0 96V416C0 451.346 28.654 480 64 480H448C483.346 480 512 451.346 512 416V96C512 60.654 483.346 32 448 32ZM112 96C138.51 96 160 117.492 160 144C160 170.508 138.51 192 112 192C85.49 192 64 170.508 64 144C64 117.492 85.49 96 112 96ZM446.121 407.551C443.336 412.754 437.914 416 432.014 416H82.013C75.992 416 70.48 412.621 67.752 407.25C65.021 401.883 65.537 395.438 69.086 390.574L139.086 294.574C142.098 290.441 146.902 288 152.014 288C157.126 288 161.93 290.441 164.941 294.574L197.396 339.086L290.701 199.125C293.668 194.672 298.664 192 304.014 192C309.364 192 314.359 194.672 317.326 199.125L445.326 391.125C448.6 396.035 448.904 402.348 446.121 407.551Z" fill="black"/>
</svg>
