<svg width="100" height="27" viewBox="0 0 100 27" fill="none" xmlns="http://www.w3.org/2000/svg">
<path d="M11.3284 24.72C11.3284 25.744 10.6884 26.256 9.40837 26.256C8.14971 26.256 7.52037 25.744 7.52037 24.72V3.824H1.92037C1.15237 3.824 0.74704 3.28 0.704373 2.192C0.704373 1.12533 1.10971 0.591999 1.92037 0.591999H16.9284C17.739 0.591999 18.123 1.12533 18.0804 2.192C18.0804 3.28 17.6964 3.824 16.9284 3.824H11.3284V24.72ZM27.7566 24.656C27.7566 25.68 27.1166 26.192 25.8366 26.192C24.578 26.192 23.9486 25.68 23.9486 24.656V1.968C23.9486 0.943999 24.578 0.431999 25.8366 0.431999C27.1166 0.431999 27.7566 0.943999 27.7566 1.968V24.656ZM44.3071 24.72C44.3071 25.744 43.6671 26.256 42.3871 26.256C41.1285 26.256 40.4991 25.744 40.4991 24.72V3.824H34.8991C34.1311 3.824 33.7258 3.28 33.6831 2.192C33.6831 1.12533 34.0885 0.591999 34.8991 0.591999H49.9071C50.7178 0.591999 51.1018 1.12533 51.0591 2.192C51.0591 3.28 50.6751 3.824 49.9071 3.824H44.3071V24.72ZM65.2154 3.728L58.2074 25.232V25.2C58.0794 25.52 57.898 25.7867 57.6634 26C57.45 26.192 57.1834 26.288 56.8634 26.288C56.6927 26.288 56.522 26.2667 56.3514 26.224C56.202 26.2027 56.042 26.1707 55.8714 26.128H55.9034C54.6874 25.744 54.2394 25.0613 54.5594 24.08L61.8554 1.904C61.962 1.56267 62.1434 1.27467 62.3994 1.04C62.6767 0.805333 62.9967 0.666666 63.3594 0.623999C63.722 0.559998 64.074 0.517331 64.4154 0.495998C64.7567 0.453332 65.0234 0.431999 65.2154 0.431999C65.4074 0.431999 65.674 0.453332 66.0154 0.495998C66.3567 0.517331 66.7087 0.549332 67.0714 0.591999C67.37 0.634665 67.658 0.794665 67.9354 1.072C68.234 1.34933 68.458 1.62667 68.6074 1.904C69.802 5.57333 71.0074 9.27467 72.2234 13.008C73.4607 16.72 74.6767 20.4107 75.8714 24.08C76.17 25.0613 75.722 25.744 74.5274 26.128C74.3567 26.1707 74.1967 26.2027 74.0474 26.224C73.9194 26.2667 73.77 26.288 73.5994 26.288C73.3007 26.288 73.0234 26.192 72.7674 26C72.5327 25.7867 72.362 25.52 72.2554 25.2V25.232L65.2154 3.728ZM67.6154 18.32C67.6154 19.0027 67.37 19.5893 66.8794 20.08C66.41 20.5493 65.834 20.784 65.1514 20.784C64.4687 20.784 63.8927 20.5493 63.4234 20.08C62.954 19.5893 62.7194 19.0027 62.7194 18.32C62.7194 17.6373 62.954 17.0613 63.4234 16.592C63.8927 16.1013 64.4687 15.856 65.1514 15.856C65.834 15.856 66.41 16.1013 66.8794 16.592C67.37 17.0613 67.6154 17.6373 67.6154 18.32ZM95.7929 1.968C95.7929 0.943999 96.4222 0.431999 97.6809 0.431999C98.9395 0.431999 99.5689 0.943999 99.5689 1.968V24.048C99.5689 24.7947 99.1742 25.3387 98.3849 25.68H98.4169C98.0755 25.8293 97.7129 25.9467 97.3289 26.032C96.9449 26.1173 96.5715 26.16 96.2089 26.16C95.9315 26.16 95.6435 26.128 95.3449 26.064C95.0462 26.0213 94.7582 25.9467 94.4809 25.84C94.2249 25.712 93.9795 25.552 93.7449 25.36C93.5315 25.1467 93.3609 24.8907 93.2329 24.592L86.2889 7.28L85.4249 7.376V24.656C85.4249 25.68 84.7849 26.192 83.5049 26.192C82.2462 26.192 81.6169 25.68 81.6169 24.656V2.608C81.6169 1.73333 82.0009 1.14667 82.7689 0.848C83.4729 0.570666 84.2195 0.431999 85.0089 0.431999C85.5635 0.431999 86.1182 0.549332 86.6729 0.783998C87.2489 0.997332 87.6862 1.41333 87.9849 2.032L94.8969 19.376L95.7929 19.28V1.968Z" fill="black"/>
</svg>
