<svg width="26" height="24" viewBox="0 0 26 24" fill="none" xmlns="http://www.w3.org/2000/svg">
<path d="M18.5712 3.30811C18.7822 3.30811 18.9847 3.39195 19.1339 3.5412C19.2831 3.69045 19.367 3.89287 19.367 4.10394V15.2456C19.367 15.4567 19.2831 15.6591 19.1339 15.8083C18.9847 15.9576 18.7822 16.0414 18.5712 16.0414C18.3601 16.0414 18.1577 15.9576 18.0084 15.8083C17.8592 15.6591 17.7753 15.4567 17.7753 15.2456V4.10394C17.7753 3.89287 17.8592 3.69045 18.0084 3.5412C18.1577 3.39195 18.3601 3.30811 18.5712 3.30811ZM21.7545 3.30811C21.9656 3.30811 22.168 3.39195 22.3172 3.5412C22.4665 3.69045 22.5503 3.89287 22.5503 4.10394V15.2456C22.5503 15.4567 22.4665 15.6591 22.3172 15.8083C22.168 15.9576 21.9656 16.0414 21.7545 16.0414C21.5434 16.0414 21.341 15.9576 21.1918 15.8083C21.0425 15.6591 20.9587 15.4567 20.9587 15.2456V4.10394C20.9587 3.89287 21.0425 3.69045 21.1918 3.5412C21.341 3.39195 21.5434 3.30811 21.7545 3.30811ZM5.83783 16.0414C5.62676 16.0414 5.42433 16.1253 5.27509 16.2745C5.12584 16.4238 5.04199 16.6262 5.04199 16.8373C5.04199 17.0483 5.12584 17.2508 5.27509 17.4C5.42433 17.5493 5.62676 17.6331 5.83783 17.6331H15.3878C15.5989 17.6331 15.8013 17.5493 15.9506 17.4C16.0998 17.2508 16.1837 17.0483 16.1837 16.8373C16.1837 16.6262 16.0998 16.4238 15.9506 16.2745C15.8013 16.1253 15.5989 16.0414 15.3878 16.0414H5.83783ZM5.83783 19.2248C5.62676 19.2248 5.42433 19.3086 5.27509 19.4579C5.12584 19.6071 5.04199 19.8095 5.04199 20.0206C5.04199 20.2317 5.12584 20.4341 5.27509 20.5833C5.42433 20.7326 5.62676 20.8164 5.83783 20.8164H15.3878C15.5989 20.8164 15.8013 20.7326 15.9506 20.5833C16.0998 20.4341 16.1837 20.2317 16.1837 20.0206C16.1837 19.8095 16.0998 19.6071 15.9506 19.4579C15.8013 19.3086 15.5989 19.2248 15.3878 19.2248H5.83783ZM8.22533 4.89977C7.80319 4.89977 7.39834 5.06747 7.09985 5.36596C6.80135 5.66446 6.63366 6.0693 6.63366 6.49144H5.83783C5.62676 6.49144 5.42433 6.57529 5.27509 6.72453C5.12584 6.87378 5.04199 7.0762 5.04199 7.28727C5.04199 7.49834 5.12584 7.70076 5.27509 7.85001C5.42433 7.99926 5.62676 8.08311 5.83783 8.08311H6.63366V9.67477H5.83783C5.62676 9.67477 5.42433 9.75862 5.27509 9.90787C5.12584 10.0571 5.04199 10.2595 5.04199 10.4706C5.04199 10.6817 5.12584 10.8841 5.27509 11.0333C5.42433 11.1826 5.62676 11.2664 5.83783 11.2664H6.63366C6.63366 11.6886 6.80135 12.0934 7.09985 12.3919C7.39834 12.6904 7.80319 12.8581 8.22533 12.8581V13.6539C8.22533 13.865 8.30917 14.0674 8.45842 14.2167C8.60767 14.3659 8.81009 14.4498 9.02116 14.4498C9.23223 14.4498 9.43465 14.3659 9.5839 14.2167C9.73315 14.0674 9.81699 13.865 9.81699 13.6539V12.8581H11.4087V13.6539C11.4087 13.865 11.4925 14.0674 11.6418 14.2167C11.791 14.3659 11.9934 14.4498 12.2045 14.4498C12.4156 14.4498 12.618 14.3659 12.7672 14.2167C12.9165 14.0674 13.0003 13.865 13.0003 13.6539V12.8581C13.4225 12.8581 13.8273 12.6904 14.1258 12.3919C14.4243 12.0934 14.592 11.6886 14.592 11.2664H15.3878C15.5989 11.2664 15.8013 11.1826 15.9506 11.0333C16.0998 10.8841 16.1837 10.6817 16.1837 10.4706C16.1837 10.2595 16.0998 10.0571 15.9506 9.90787C15.8013 9.75862 15.5989 9.67477 15.3878 9.67477H14.592V8.08311H15.3878C15.5989 8.08311 15.8013 7.99926 15.9506 7.85001C16.0998 7.70076 16.1837 7.49834 16.1837 7.28727C16.1837 7.0762 16.0998 6.87378 15.9506 6.72453C15.8013 6.57529 15.5989 6.49144 15.3878 6.49144H14.592C14.592 6.0693 14.4243 5.66446 14.1258 5.36596C13.8273 5.06747 13.4225 4.89977 13.0003 4.89977V4.10394C13.0003 3.89287 12.9165 3.69045 12.7672 3.5412C12.618 3.39195 12.4156 3.30811 12.2045 3.30811C11.9934 3.30811 11.791 3.39195 11.6418 3.5412C11.4925 3.69045 11.4087 3.89287 11.4087 4.10394V4.89977H9.81699V4.10394C9.81699 3.89287 9.73315 3.69045 9.5839 3.5412C9.43465 3.39195 9.23223 3.30811 9.02116 3.30811C8.81009 3.30811 8.60767 3.39195 8.45842 3.5412C8.30917 3.69045 8.22533 3.89287 8.22533 4.10394V4.89977ZM8.22533 6.49144H13.0003V11.2664H8.22533V6.49144ZM18.5712 17.6331C18.3601 17.6331 18.1577 17.717 18.0084 17.8662C17.8592 18.0154 17.7753 18.2179 17.7753 18.4289V20.0206C17.7753 20.2317 17.8592 20.4341 18.0084 20.5833C18.1577 20.7326 18.3601 20.8164 18.5712 20.8164H21.7545C21.9656 20.8164 22.168 20.7326 22.3172 20.5833C22.4665 20.4341 22.5503 20.2317 22.5503 20.0206V18.4289C22.5503 18.2179 22.4665 18.0154 22.3172 17.8662C22.168 17.717 21.9656 17.6331 21.7545 17.6331H18.5712Z" fill="#64696B"/>
<path d="M1.85827 3.30833C1.85827 2.46406 2.19365 1.65437 2.79065 1.05738C3.38764 0.460386 4.19733 0.125 5.0416 0.125L22.5499 0.125C23.3942 0.125 24.2039 0.460386 24.8009 1.05738C25.3979 1.65437 25.7333 2.46406 25.7333 3.30833V20.8167C25.7333 21.6609 25.3979 22.4706 24.8009 23.0676C24.2039 23.6646 23.3942 24 22.5499 24H5.0416C4.19733 24 3.38764 23.6646 2.79065 23.0676C2.19365 22.4706 1.85827 21.6609 1.85827 20.8167V17.6333H1.06243C0.851367 17.6333 0.648943 17.5495 0.499696 17.4002C0.350448 17.251 0.266602 17.0486 0.266602 16.8375V15.2458C0.266602 15.0348 0.350448 14.8323 0.499696 14.6831C0.648943 14.5338 0.851367 14.45 1.06243 14.45H1.85827V12.8583H1.06243C0.851367 12.8583 0.648943 12.7745 0.499696 12.6252C0.350448 12.476 0.266602 12.2736 0.266602 12.0625V10.4708C0.266602 10.2598 0.350448 10.0573 0.499696 9.90809C0.648943 9.75885 0.851367 9.675 1.06243 9.675H1.85827V8.08333H1.06243C0.851367 8.08333 0.648943 7.99949 0.499696 7.85024C0.350448 7.70099 0.266602 7.49857 0.266602 7.2875V4.10417C0.266602 3.8931 0.350448 3.69068 0.499696 3.54143C0.648943 3.39218 0.851367 3.30833 1.06243 3.30833H1.85827ZM3.44993 20.8167C3.44993 21.2388 3.61763 21.6437 3.91612 21.9421C4.21462 22.2406 4.61947 22.4083 5.0416 22.4083H22.5499C22.9721 22.4083 23.3769 22.2406 23.6754 21.9421C23.9739 21.6437 24.1416 21.2388 24.1416 20.8167V3.30833C24.1416 2.8862 23.9739 2.48135 23.6754 2.18285C23.3769 1.88436 22.9721 1.71667 22.5499 1.71667H5.0416C4.61947 1.71667 4.21462 1.88436 3.91612 2.18285C3.61763 2.48135 3.44993 2.8862 3.44993 3.30833V20.8167Z" fill="#64696B"/>
</svg>
