<svg width="640" height="512" viewBox="0 0 640 512" fill="none" xmlns="http://www.w3.org/2000/svg">
<g clip-path="url(#clip0_606_23)">
<path d="M240.061 454.321C240.061 460.618 241.936 466.774 245.405 472.024L262.498 497.711C267.748 505.586 279.686 511.992 289.154 511.992H350.873C360.31 511.992 372.248 505.586 377.498 497.711L394.592 472.024C397.529 467.587 399.935 459.649 399.935 454.321L399.998 415.978H239.998L240.061 454.321ZM148.237 212.857C154.616 242.61 168.198 269.684 187.561 291.769C204.092 310.613 229.905 349.999 239.78 383.217C239.811 383.467 239.842 383.733 239.873 383.998H366.592L148.237 212.857ZM630.811 469.102L434.646 315.355C440.966 306.027 447.167 297.773 452.435 291.769C479.56 260.832 495.997 220.364 495.997 175.99C495.997 78.6088 416.904 -0.296164 319.436 0.000835692C246.434 0.226836 188.401 42.7808 161.133 100.984L38.8139 5.10984C34.4069 1.67284 29.1889 0.000835692 24.0319 0.000835692C16.9069 0.000835692 9.84494 3.15684 5.12594 9.18784C-3.06106 19.6258 -1.24906 34.7188 9.18894 42.8908L601.186 506.883C611.686 515.086 626.749 513.211 634.874 502.805C643.061 492.367 641.249 477.274 630.811 469.102ZM319.998 95.9988C280.063 95.9988 247.174 125.483 241.235 163.764L214.004 142.42C228.272 97.1238 270.039 63.9998 319.998 63.9998C328.842 63.9998 335.998 71.1558 335.998 79.9988C335.998 88.8418 328.842 95.9988 319.998 95.9988Z" fill="white"/>
</g>
<defs>
<clipPath id="clip0_606_23">
<rect width="640" height="512" fill="white"/>
</clipPath>
</defs>
</svg>
