<svg width="22" height="22" viewBox="0 0 22 22" fill="none" xmlns="http://www.w3.org/2000/svg">
<path d="M7.82728 0.46915C4.72551 1.40259 2.20385 3.66694 0.921342 6.6H5.5033C5.94573 4.03815 6.7639 1.89924 7.82728 0.46915ZM6.6 11C6.6 12.0335 6.66444 13.0101 6.77197 13.9333H15.228C15.3356 13.0101 15.4 12.0335 15.4 11C15.4 9.9665 15.3356 8.98989 15.228 8.06667H6.77197C6.66444 8.98989 6.6 9.9665 6.6 11ZM15.0138 6.6C14.269 2.5646 12.5676 0 11 0C9.43236 0 7.73098 2.5646 6.98619 6.6H15.0138ZM21.0787 6.6C19.7962 3.66694 17.2745 1.40259 14.1727 0.46915C15.2361 1.89924 16.0543 4.03815 16.4967 6.6H21.0787ZM14.1727 21.5309C17.2745 20.5974 19.7962 18.3331 21.0787 15.4H16.4967C16.0543 17.9619 15.2361 20.1008 14.1727 21.5309ZM21.5923 8.06667H16.7033C16.8064 9.00616 16.8667 9.98443 16.8667 11C16.8667 12.0156 16.8064 12.9938 16.7033 13.9333H21.5923C21.8509 12.9981 22 12.0175 22 11C22 9.98255 21.8509 9.00185 21.5923 8.06667ZM6.98619 15.4C7.73098 19.4354 9.43245 22 11 22C12.5675 22 14.269 19.4354 15.0138 15.4H6.98619ZM5.13333 11C5.13333 9.98443 5.19365 9.00616 5.29668 8.06667H0.407688C0.149142 9.00185 0 9.98255 0 11C0 12.0175 0.149142 12.9981 0.407688 13.9333H5.29668C5.19365 12.9938 5.13333 12.0156 5.13333 11ZM0.921342 15.4C2.20385 18.3331 4.72551 20.5974 7.82728 21.5309C6.7639 20.1008 5.94573 17.9619 5.5033 15.4H0.921342Z" fill="#64696B"/>
</svg>
