<svg width="512" height="512" viewBox="0 0 512 512" fill="none" xmlns="http://www.w3.org/2000/svg">
<g clip-path="url(#clip0_585_161)">
<path d="M512 288C512 314.625 502.625 337.375 484 356C465.375 374.625 442.625 384 416 384H288V368L319.145 315.576C321.805 310.258 317.938 304 311.99 304H288V224C288 206.327 273.673 192 256 192C238.327 192 224 206.327 224 224V240H200.01C194.062 240 190.195 246.258 192.855 251.578L224 304V384H96C69.375 384 46.625 374.625 28 356C9.375 337.375 0 314.625 0 288C0 268.625 5.375 251 16 235C26.625 219 41 207.375 59 200C49.625 184 46.125 167.5 48.5 150.5C50.875 133.5 57.625 118.875 69 106.5C80.375 94.1251 94.125 86.0001 110.5 82.0001C126.875 78.0001 143.375 79.6251 160 87.0001C162.682 61.8441 173.582 40.7321 192.7 23.9301C209.858 8.85113 232.334 0.176128 255.175 0.00312811C280.145 -0.185872 301.92 8.19013 320.5 25.0001C338.875 41.6251 349.375 62.3751 352 87.0001C368.625 79.6251 385.125 78.0001 401.5 82.0001C417.875 86.0001 431.625 94.1251 443 106.5C454.375 118.875 461.125 133.5 463.5 150.5C465.875 167.5 462.625 184 454 200H453C471 207.375 485.375 219 496 235C506.625 251 512 268.625 512 288Z" fill="#3F4C5F" fill-opacity="0.53"/>
<path d="M200.01 240H224V224C224 206.327 238.327 192 256 192C273.673 192 288 206.327 288 224V304H311.99C317.938 304 321.805 310.258 319.145 315.576L288 368V480C288 497.673 273.673 512 256 512C238.327 512 224 497.673 224 480V304L192.855 251.578C190.195 246.258 194.062 240 200.01 240Z" fill="#5A6D98"/>
</g>
<defs>
<clipPath id="clip0_585_161">
<rect width="512" height="512" fill="white"/>
</clipPath>
</defs>
</svg>
