<svg width="512" height="512" viewBox="0 0 512 512" fill="none" xmlns="http://www.w3.org/2000/svg">
<path d="M16 192H368C412.125 192 448 156.125 448 112C448 67.875 412.125 32 368 32H336C327.156 32 320 39.156 320 48C320 56.844 327.156 64 336 64H368C394.469 64 416 85.531 416 112C416 138.469 394.469 160 368 160H16C7.156 160 0 167.156 0 176C0 184.844 7.156 192 16 192ZM176 320H16C7.156 320 0 327.156 0 336C0 344.844 7.156 352 16 352H176C202.469 352 224 373.531 224 400C224 426.469 202.469 448 176 448H144C135.156 448 128 455.156 128 464C128 472.844 135.156 480 144 480H176C220.125 480 256 444.125 256 400C256 355.875 220.125 320 176 320ZM424 240H16C7.156 240 0 247.156 0 256C0 264.844 7.156 272 16 272H424C454.875 272 480 297.125 480 328C480 358.875 454.875 384 424 384H400C391.156 384 384 391.156 384 400C384 408.844 391.156 416 400 416H424C472.531 416 512 376.531 512 328C512 279.469 472.531 240 424 240Z" fill="black"/>
</svg>
